<svg xmlns="http://www.w3.org/2000/svg" viewBox="0 0 215.22 144.08"><defs><style>.cls-1,.cls-2{fill:#1d1d1b;}.cls-2{font-size:15.97px;font-family:MicrosoftYaHeiUILight, Microsoft YaHei UI;}</style></defs><title>Recurso 1</title><g id="Capa_2" data-name="Capa 2"><g id="Capa_1-2" data-name="Capa 1"><path class="cls-1" d="M188.33,102.75c-6,.28-10,0-20.23,0-13.89,0-27.56-5.24-36.09-14.27s-12.79-20.76-12.79-35.15q0-24.06,13.79-38.66C142.2,4.93,154.47.18,169.82.07c4.67,0,9-.13,17.79,0l-.41,13.6a120,120,0,0,0-19.2.2c-9.94.58-16.87,2.9-23.24,10S135.2,40.39,135.2,52q0,17.11,9,27t24.11,9.9c8.49,0,7.46.23,20-.12Z"/><path class="cls-1" d="M65.92,1.09q22.13,0,36.68,16A49.82,49.82,0,0,1,115.83,51.7a49.84,49.84,0,0,1-14,35.08q-14,15-35.93,15t-36-15a49.84,49.84,0,0,1-14-35.08A49.71,49.71,0,0,1,29.15,17.2Q43.7,1.09,65.92,1.09Zm0,13.81a33.79,33.79,0,0,0-25.1,10.78A36.07,36.07,0,0,0,30.29,51.77a37,37,0,0,0,4.79,18.4A33.88,33.88,0,0,0,48,83.34a36.75,36.75,0,0,0,35.75,0A34,34,0,0,0,96.67,70.17a37,37,0,0,0,4.78-18.4A36,36,0,0,0,90.92,25.68Q80.39,14.89,65.88,14.9Z"/><line class="cls-1" y1="114.44" x2="215.22" y2="114.44"/><text class="cls-2" transform="translate(65.88 139.9)">Octavio Caba</text></g></g></svg>